<svg width="52" height="52" viewBox="0 0 52 52" fill="none" xmlns="http://www.w3.org/2000/svg">
<circle cx="26" cy="26" r="25" stroke="white" stroke-width="1.5"/>
<path d="M33.12 28.1394C32.0267 28.1394 30.9689 27.9633 29.9822 27.6462C29.6711 27.5406 29.3244 27.6198 29.0844 27.8576L27.6889 29.5924C25.1733 28.4036 22.8178 26.158 21.5644 23.5778L23.2978 22.1159C23.5378 21.8694 23.6089 21.5259 23.5111 21.2177C23.1822 20.2402 23.0133 19.1923 23.0133 18.1091C23.0133 17.6336 22.6133 17.2373 22.1333 17.2373H19.0578C18.5778 17.2373 18 17.4487 18 18.1091C18 26.2901 24.8711 33.0885 33.12 33.0885C33.7511 33.0885 34 32.5337 34 32.0493V29.0112C34 28.5357 33.6 28.1394 33.12 28.1394Z" fill="white"/>
</svg>
