<svg width="43" height="38" viewBox="0 0 43 38" fill="none" xmlns="http://www.w3.org/2000/svg">
<path d="M17.0849 14.8269V15.0622H16.366C15.6919 15.0622 15.0629 15.58 14.973 16.3331L13.4452 27.7708C13.2655 29.1358 14.254 30.3125 15.5571 30.3125H27.1054C28.4085 30.3125 29.397 29.0887 29.2173 27.7708L27.6895 16.3331C27.5996 15.627 27.0155 15.0622 26.2965 15.0622H25.5776V14.9681C25.5776 12.85 24.2295 10.9202 22.2524 10.4966C19.4665 9.88466 17.0849 12.0498 17.0849 14.8269ZM24.2745 17.4627C24.8137 17.4627 25.2181 17.8863 25.2181 18.4512C25.2181 20.7105 23.4656 22.5462 21.3088 22.5462C19.1519 22.5462 17.3995 20.7105 17.3995 18.4512C17.3995 17.8863 17.8039 17.4627 18.3431 17.4627C18.8823 17.4627 19.2867 17.8863 19.2867 18.4512C19.2867 19.6279 20.1854 20.5693 21.3088 20.5693C22.4321 20.5693 23.3308 19.6279 23.3308 18.4512C23.3308 17.9334 23.7353 17.4627 24.2745 17.4627ZM23.6454 14.8269V15.0622H18.9722V14.8269C18.9722 13.4619 20.0057 12.3793 21.3088 12.3793C22.6119 12.3322 23.6454 13.4619 23.6454 14.8269Z" fill="#268FB4"/>
<path d="M42.6542 16.2858C42.6093 15.8622 42.3846 15.5327 42.0701 15.2973L33.847 9.13134V2.77706C33.847 1.92982 33.173 1.22379 32.3642 1.22379C31.5554 1.22379 30.8813 1.92982 30.8813 2.77706V6.87204L22.164 0.282412C21.6697 -0.0941375 20.9508 -0.0941375 20.4565 0.282412L0.595384 15.2973C0.280842 15.5327 0.0561683 15.9092 0.0112337 16.2858C-0.033701 16.7094 0.0561684 17.086 0.280842 17.4154C0.730188 18.1215 1.62888 18.2627 2.3029 17.792L5.31352 15.4856V35.9605C5.31352 36.8078 5.98754 37.5138 6.79637 37.5138H35.8242C36.633 37.5138 37.307 36.8078 37.307 35.9605V15.4856L40.3176 17.792C40.9467 18.2627 41.8903 18.1215 42.3846 17.4625C42.6093 17.086 42.6991 16.7094 42.6542 16.2858ZM34.3862 34.4073H8.23427V13.2734L8.36908 13.1322L21.3103 3.38895L34.3862 13.2734V34.4073Z" fill="#268FB4"/>
</svg>
