<svg width="30" height="14" viewBox="0 0 30 14" fill="none" xmlns="http://www.w3.org/2000/svg">
<path d="M4.62628 8.25196C6.56322 8.25196 8.13342 6.60718 8.13342 4.57825C8.13342 2.54932 6.56322 0.904541 4.62628 0.904541C2.68934 0.904541 1.11914 2.54932 1.11914 4.57825C1.11914 6.60718 2.68934 8.25196 4.62628 8.25196Z" fill="#268FB4"/>
<path d="M11.1726 13.5193H2.75512C1.72189 13.5193 0.884766 12.642 0.884766 11.5602C0.884766 10.4783 1.72235 9.60098 2.75512 9.60098H9.30228V2.74287C9.30228 1.66057 10.1399 0.783691 11.1726 0.783691C12.2059 0.783691 13.0434 1.66106 13.0434 2.74287V11.5602C13.0434 12.6425 12.2059 13.5193 11.1726 13.5193Z" fill="#268FB4"/>
<path d="M29.8794 9.04854V13.5182H14.3301V4.57837H24.0921C27.3074 4.57837 29.8794 5.3133 29.8794 9.04854Z" fill="#268FB4"/>
</svg>
