<svg width="38" height="42" viewBox="0 0 38 42" fill="none" xmlns="http://www.w3.org/2000/svg">
<path d="M37.992 9.4704C37.9858 9.39251 37.9735 9.31461 37.9487 9.24321C37.9425 9.21725 37.9301 9.19128 37.9239 9.16532C37.8867 9.07445 37.8371 8.99006 37.769 8.91866C37.769 8.91866 37.769 8.91866 37.7628 8.91217L29.4963 0.25315C29.1741 -0.0843833 28.6536 -0.0843833 28.3252 0.25315L20.0711 8.90568C20.0711 8.90568 20.0711 8.90568 20.0649 8.91217C19.9968 8.98357 19.9472 9.06795 19.91 9.15883C19.8976 9.18479 19.8914 9.21076 19.8852 9.23672C19.8605 9.31461 19.8481 9.38601 19.8419 9.46391C19.8419 9.48338 19.8295 9.49636 19.8295 9.51583V40.6727C19.8295 41.1531 20.2013 41.536 20.6536 41.536C21.106 41.536 21.4778 41.1531 21.4778 40.6792V25.9641H24.7806V28.5605V40.6727C24.7806 41.1531 25.1524 41.536 25.6048 41.536C26.0572 41.536 26.4352 41.1531 26.4352 40.6792V39.8159H31.3925V40.6792C31.3925 41.1531 31.7643 41.5425 32.2167 41.5425C32.6753 41.5425 33.0409 41.1531 33.0409 40.6792V25.9641H36.3499V40.6792C36.3499 41.1531 36.7217 41.5425 37.1741 41.5425C37.6326 41.5425 37.9982 41.1531 37.9982 40.6792V9.52233C38.0044 9.50285 37.992 9.48338 37.992 9.4704ZM31.3925 38.0828H26.4352V36.3497H31.3925V38.0828ZM31.3925 34.6166H26.4352V32.8835H31.3925V34.6166ZM31.3925 31.1569H26.4352V29.4238H31.3925V31.1569ZM31.3925 27.6972H26.4352V25.9641H31.3925V27.6972ZM26.4352 24.231V18.1749C26.4352 16.7403 27.5444 15.5784 28.9139 15.5784C29.2547 15.5784 29.5831 15.6498 29.8805 15.7797C30.7667 16.1756 31.3925 17.1038 31.3925 18.1749V24.231H26.4352ZM22.649 8.65253L28.9139 2.09011L35.1787 8.65253H22.649Z" fill="#268FB4"/>
<path d="M14.2834 23.7763L7.02088 35.96C6.89075 36.2002 6.64288 36.3494 6.38262 36.3494H0.824163C0.365606 36.3494 0 36.7389 0 37.2128V40.6725C0 41.1528 0.371803 41.5358 0.824163 41.5358H6.38262C8.43373 41.5358 10.3361 40.3739 11.3214 38.5304L18.175 27.0413V20.8813C16.539 21.2059 15.1014 22.2574 14.2834 23.7763Z" fill="#268FB4"/>
</svg>
