<svg width="37" height="34" viewBox="0 0 37 34" fill="none" xmlns="http://www.w3.org/2000/svg">
<path d="M35.1287 10.6076C34.9058 10.6076 34.6792 10.5655 34.4586 10.4768L18.5 4.05813L2.54142 10.4768C1.57664 10.8649 0.494852 10.3601 0.124851 9.34996C-0.245612 8.33984 0.236314 7.20619 1.20063 6.81862L17.8294 0.130079C18.2609 -0.0433597 18.7386 -0.0433597 19.1706 0.130079L35.7994 6.81862C36.7637 7.20668 37.2456 8.33984 36.8751 9.34996C36.5893 10.1295 35.8803 10.6076 35.1287 10.6076Z" fill="#268FB4"/>
<path d="M7.62628 22.252C9.56322 22.252 11.1334 20.6072 11.1334 18.5782C11.1334 16.5493 9.56322 14.9045 7.62628 14.9045C5.68934 14.9045 4.11914 16.5493 4.11914 18.5782C4.11914 20.6072 5.68934 22.252 7.62628 22.252Z" fill="#268FB4"/>
<path d="M14.1726 27.5193H5.75512C4.72189 27.5193 3.88477 26.642 3.88477 25.5602C3.88477 24.4783 4.72235 23.601 5.75512 23.601H12.3023V16.7429C12.3023 15.6606 13.1399 14.7837 14.1726 14.7837C15.2059 14.7837 16.0434 15.6611 16.0434 16.7429V25.5602C16.0434 26.6425 15.2059 27.5193 14.1726 27.5193Z" fill="#268FB4"/>
<path d="M32.8794 23.0485V27.5182H17.3301V18.5784H27.0921C30.3074 18.5784 32.8794 19.3133 32.8794 23.0485Z" fill="#268FB4"/>
<path d="M33.6739 33.8871H3.32738C2.29416 33.8871 1.45703 33.0097 1.45703 31.9279C1.45703 30.8461 2.29462 29.9688 3.32738 29.9688H33.6739C34.7071 29.9688 35.5442 30.8461 35.5442 31.9279C35.5442 33.0097 34.7071 33.8871 33.6739 33.8871Z" fill="#268FB4"/>
</svg>
