<svg width="49" height="45" viewBox="0 0 49 45" fill="none" xmlns="http://www.w3.org/2000/svg">
<path d="M45.6267 32.4473H26.5071V30.7182H45.6273L45.6267 32.4473ZM47.3006 33.9945H48.9744V42.0276V43.8635V45H0V42.0276H15.8737C16.1811 41.2169 16.3498 40.2315 16.3498 39.345C16.3498 38.6681 16.3928 36.8389 16.4483 34.7434L11.6739 29.1356C11.5857 29.1378 11.4997 29.1485 11.4094 29.1485C6.23009 29.1485 2.03081 25.0699 2.03081 20.0391C2.03081 19.0807 2.18589 18.1588 2.46885 17.2908C1.33972 15.9717 0.658978 14.2774 0.658978 12.4285C0.658978 8.22518 4.16881 4.81736 8.49706 4.81736C9.15277 4.81736 9.78618 4.90387 10.394 5.05106C11.0845 2.15952 13.7477 0 16.9354 0C20.0382 0 22.642 2.04379 23.4141 4.81904C23.425 4.81904 23.437 4.81736 23.4484 4.81736C27.0453 4.81736 29.9609 7.64934 29.9609 11.1414C29.9609 12.6071 29.4445 13.9538 28.5815 15.0251C28.9248 15.97 29.1191 16.9824 29.1191 18.0419C29.1191 23.0722 24.9198 27.1502 19.741 27.1502C19.6801 27.1502 19.6208 27.1424 19.5593 27.1401C19.6453 30.4592 19.8227 37.5956 19.8227 39.345C19.8227 40.3326 19.9767 41.2731 20.301 42.0276H23.333V33.9945H25.0069V37.2686H47.3006V33.9945ZM16.531 31.785C16.5768 30.1839 16.6236 28.6676 16.6557 27.5912C15.7681 28.1738 14.7691 28.6008 13.7014 28.8631L16.531 31.785ZM28.1799 38.9967V42.0276H43.954V38.9967H28.1799ZM25.0085 42.0276H26.5071V38.9967H25.0085V42.0276ZM47.3006 42.0276V38.9967H45.6267V42.0276H47.3006ZM26.5071 35.7215H45.6273V33.9945H26.5071V35.7215ZM44.7904 10.9965C47.1145 10.9965 49 9.04989 49 6.65048C49 4.24939 47.115 2.3039 44.7904 2.3039C42.4641 2.3039 40.5808 4.24939 40.5808 6.64992C40.5808 9.04989 42.4641 10.9965 44.7904 10.9965Z" fill="#268FB4"/>
</svg>
