<svg width="59" height="31" viewBox="0 0 59 31" fill="none" xmlns="http://www.w3.org/2000/svg">
<path fillRule="evenodd" clipRule="evenodd" d="M0.938529 19.35C0.714948 19.3802 0.506042 19.4833 0.341322 19.6451C0.176601 19.8069 0.0643923 20.0191 0.020545 20.2516C-0.0233023 20.484 0.00342853 20.7249 0.0969617 20.9405C0.190495 21.1562 0.346103 21.3355 0.541804 21.4532C0.541804 21.4532 1.47224 22.0471 2.66949 22.6382C3.86674 23.2295 5.29113 23.8731 6.70251 23.8737C8.10967 23.8744 9.19205 23.1479 10.0687 22.5882C10.9454 22.0283 11.6191 21.6367 12.2916 21.6367C12.9648 21.6367 13.6538 22.029 14.5304 22.5882C15.4071 23.1479 16.4739 23.8737 17.8807 23.8737C19.2877 23.8737 20.3544 23.1479 21.231 22.5882C22.1077 22.0283 22.7971 21.6367 23.4699 21.6367C24.143 21.6367 24.8321 22.029 25.7087 22.5882C26.5853 23.1479 27.6521 23.8737 29.059 23.8737C30.4659 23.8737 31.5326 23.1479 32.4093 22.5882C33.2859 22.0283 33.9754 21.6367 34.6481 21.6367C35.3212 21.6367 35.9944 22.029 36.871 22.5882C37.7477 23.1479 38.8145 23.8737 40.2213 23.8737C41.6282 23.8737 42.695 23.1479 43.5716 22.5882C44.4483 22.0283 45.1377 21.6367 45.8105 21.6367C46.4836 21.6367 47.1726 22.029 48.0493 22.5882C48.9259 23.1479 49.9927 23.8737 51.3996 23.8737C52.8088 23.8744 54.2349 23.2257 55.4326 22.6382C56.6303 22.0502 57.5603 21.47 57.5603 21.47C57.6823 21.3938 57.7887 21.2929 57.8734 21.1733C57.9582 21.0536 58.0196 20.9177 58.0541 20.773C58.0887 20.6283 58.0957 20.4777 58.0747 20.3302C58.0537 20.1827 58.0051 20.0411 57.9318 19.9134C57.8585 19.7857 57.7619 19.6746 57.6475 19.5863C57.5332 19.498 57.4034 19.4345 57.2655 19.3991C57.1277 19.3638 56.9845 19.3573 56.8444 19.3804C56.7042 19.4035 56.5698 19.4556 56.4488 19.5336C56.4488 19.5336 55.6113 20.0702 54.5276 20.6018C53.4438 21.1335 52.0757 21.6038 51.3996 21.6033C50.7264 21.6033 50.0374 21.2113 49.1608 20.6521C48.2841 20.0922 47.2173 19.3666 45.8105 19.3666C44.4036 19.3666 43.3368 20.0922 42.4602 20.6521C41.5835 21.2118 40.8941 21.6033 40.2213 21.6033C39.5482 21.6033 38.875 21.2113 37.9984 20.6521C37.1218 20.0922 36.0549 19.3666 34.6481 19.3666C33.2412 19.3666 32.1585 20.0922 31.2819 20.6521C30.4053 21.2118 29.7318 21.6033 29.059 21.6033C28.3858 21.6033 27.6968 21.2113 26.8201 20.6521C25.9435 20.0922 24.8767 19.3666 23.4699 19.3666C22.063 19.3666 20.9962 20.0922 20.1196 20.6521C19.2429 21.2118 18.5535 21.6033 17.8807 21.6033C17.2076 21.6033 16.5185 21.2113 15.6419 20.6521C14.7653 20.0922 13.6985 19.3666 12.2916 19.3666C10.8846 19.3666 9.81794 20.0922 8.94133 20.6521C8.06479 21.2118 7.37499 21.6038 6.70251 21.6033C6.02613 21.6031 4.65759 21.1196 3.57456 20.585C2.49153 20.05 1.66914 19.5167 1.66914 19.5167C1.45263 19.371 1.19365 19.3117 0.939098 19.3495L0.938529 19.35Z" fill="#21436E"/>
<path fillRule="evenodd" clipRule="evenodd" d="M1.05443 26.127C0.82217 26.1359 0.598922 26.2238 0.418114 26.3773C0.237305 26.5309 0.108665 26.7417 0.051453 26.9785C-0.00575882 27.2154 0.011536 27.4654 0.100748 27.691C0.18996 27.9166 0.34629 28.1057 0.54633 28.2301C0.54633 28.2301 1.47677 28.8244 2.67401 29.4157C3.87126 30.007 5.29565 30.65 6.70704 30.6507C8.11419 30.6514 9.19657 29.9251 10.0733 29.3655C10.9499 28.8055 11.6236 28.4139 12.2962 28.4139C12.9693 28.4139 13.6584 28.8055 14.535 29.3655C15.4116 29.9254 16.4784 30.6507 17.8853 30.6507C19.2922 30.6507 20.3589 29.9251 21.2356 29.3655C22.1122 28.8055 22.8017 28.4139 23.4744 28.4139C24.1475 28.4139 24.8366 28.8055 25.7132 29.3655C26.5898 29.9254 27.6567 30.6507 29.0635 30.6507C30.4704 30.6507 31.5372 29.9251 32.4138 29.3655C33.2904 28.8055 33.9799 28.4139 34.6526 28.4139C35.3257 28.4139 35.999 28.8055 36.8756 29.3655C37.7522 29.9254 38.819 30.6507 40.2259 30.6507C41.6327 30.6507 42.6996 29.9251 43.5762 29.3655C44.4528 28.8055 45.1423 28.4139 45.815 28.4139C46.4881 28.4139 47.1772 28.8055 48.0538 29.3655C48.9304 29.9254 49.9973 30.6507 51.4041 30.6507C52.8134 30.6516 54.2395 30.02 55.4371 29.4323C56.6349 28.8441 57.5648 28.2469 57.5648 28.2469C57.6857 28.1702 57.7911 28.0692 57.8749 27.9496C57.9587 27.8301 58.0193 27.6944 58.0532 27.5502C58.0871 27.4061 58.0937 27.2562 58.0726 27.1094C58.0514 26.9626 58.003 26.8216 57.93 26.6945C57.857 26.5673 57.7609 26.4566 57.6472 26.3685C57.5335 26.2804 57.4044 26.2167 57.2673 26.1811C57.1302 26.1454 56.9877 26.1384 56.8481 26.1606C56.7084 26.1829 56.5743 26.2338 56.4533 26.3105C56.4533 26.3105 55.6158 26.8474 54.5321 27.3791C53.4484 27.9107 52.0802 28.3976 51.4041 28.3974C50.731 28.3974 50.0419 27.9887 49.1653 27.429C48.2887 26.8694 47.2218 26.1604 45.815 26.1604C44.4082 26.1604 43.3413 26.8698 42.4647 27.429C41.5881 27.9889 40.8986 28.3974 40.2259 28.3974C39.5527 28.3974 38.8795 27.9887 38.0029 27.429C37.1263 26.8694 36.0594 26.1604 34.6526 26.1604C33.2458 26.1604 32.1631 26.8698 31.2865 27.429C30.4098 27.9889 29.7363 28.3974 29.0635 28.3974C28.3904 28.3974 27.7013 27.9887 26.8247 27.429C25.9481 26.8694 24.8812 26.1604 23.4744 26.1604C22.0676 26.1604 21.0007 26.8698 20.1241 27.429C19.2475 27.9889 18.5581 28.3974 17.8853 28.3974C17.2121 28.3974 16.5231 27.9887 15.6465 27.429C14.7698 26.8694 13.703 26.1604 12.2962 26.1604C10.8892 26.1604 9.82247 26.8698 8.94585 27.429C8.06932 27.9889 7.37952 28.3976 6.70704 28.3974C6.03065 28.3969 4.66211 27.9134 3.57909 27.3791C2.49606 26.844 1.67366 26.3105 1.67366 26.3105C1.48979 26.1844 1.27362 26.1207 1.05419 26.1275L1.05443 26.127Z" fill="#21436E"/>
<path fillRule="evenodd" clipRule="evenodd" d="M29.0096 0.00212927C28.9039 0.00212927 28.7982 0.0270368 28.6942 0.0360821L15.801 2.3065C12.7887 2.6509 13.5401 7.45117 16.4985 6.7626L28.0432 4.73979L30.2823 8.26425L13.2343 18.2237C14.5126 18.4639 15.4871 19.1137 16.196 19.5664C17.0727 20.1254 17.575 20.3655 17.8807 20.3655C19.2612 19.8518 20.4524 19.0733 21.7204 18.4399L34.391 11.0332C35.494 10.3921 35.8396 8.89707 35.1389 7.79581L30.8371 1.02071C30.4338 0.374656 29.7445 -0.00997891 29.0095 0.000196992L29.0096 0.00212927Z" fill="#21436E"/>
<path d="M48.4145 7.9233C48.4145 8.6657 48.2754 9.40073 48.0052 10.0866C47.7349 10.7725 47.3388 11.3957 46.8395 11.9206C46.3402 12.4456 45.7474 12.8621 45.0949 13.1462C44.4425 13.4303 43.7433 13.5766 43.0371 13.5766C42.3309 13.5766 41.6317 13.4303 40.9792 13.1462C40.3268 12.8621 39.734 12.4456 39.2347 11.9206C38.7353 11.3957 38.3392 10.7725 38.069 10.0866C37.7988 9.40073 37.6597 8.6657 37.6597 7.9233C37.6597 7.1809 37.7988 6.44559 38.069 5.75971C38.3392 5.07382 38.7353 4.45066 39.2347 3.9257C39.734 3.40075 40.3268 2.98447 40.9792 2.70036C41.6317 2.41626 42.3309 2.27002 43.0371 2.27002C43.7433 2.27002 44.4425 2.41626 45.0949 2.70036C45.7474 2.98447 46.3402 3.40075 46.8395 3.9257C47.3388 4.45066 47.7349 5.07382 48.0052 5.75971C48.2754 6.44559 48.4145 7.1809 48.4145 7.9233Z" fill="#21436E"/>
</svg>
