<svg width="52" height="40" viewBox="0 0 52 40" fill="none" xmlns="http://www.w3.org/2000/svg">
<path d="M18.8372 13.9903C18.9025 14.0694 18.9838 14.135 19.0761 14.1829C19.1685 14.2309 19.2699 14.2603 19.3744 14.2694C19.4788 14.2785 19.5841 14.2671 19.6839 14.2358C19.7836 14.2045 19.8757 14.154 19.9547 14.0874C20.0336 14.0208 20.0978 13.9394 20.1432 13.8482C20.1886 13.757 20.2144 13.6579 20.219 13.5568C20.2236 13.4557 20.2069 13.3547 20.1699 13.2601C20.1329 13.1654 20.0764 13.0789 20.0038 13.0059L14.233 6.64142C14.1656 6.56739 14.0838 6.50689 13.9922 6.46337C13.9005 6.41986 13.8009 6.39418 13.699 6.3878C13.5971 6.38143 13.4949 6.39448 13.3982 6.42622C13.3016 6.45795 13.2123 6.50775 13.1356 6.57276C13.0589 6.63778 12.9961 6.71674 12.951 6.80513C12.9059 6.89353 12.8793 6.98963 12.8727 7.08795C12.8661 7.18627 12.8796 7.28488 12.9125 7.37816C12.9454 7.47143 12.997 7.55755 13.0644 7.63158L18.8372 13.9903Z" fill="white"/>
<path d="M28.7423 10.3156C28.8442 10.3151 28.9449 10.2952 29.0388 10.2571C29.1327 10.2191 29.2179 10.1635 29.2896 10.0936C29.3613 10.0238 29.418 9.941 29.4565 9.85C29.495 9.75901 29.5145 9.66158 29.514 9.5633L29.4518 1.10055C29.4511 1.00227 29.4302 0.905093 29.3905 0.814581C29.3508 0.724069 29.293 0.64199 29.2204 0.573031C29.1478 0.504072 29.0619 0.449583 28.9674 0.412677C28.873 0.37577 28.772 0.357168 28.6701 0.357933C28.4642 0.359466 28.2673 0.439729 28.1227 0.581118C27.978 0.722507 27.8974 0.91348 27.8984 1.11215L27.9626 9.57104C27.9631 9.66932 27.9837 9.76654 28.0232 9.85715C28.0626 9.94776 28.1202 10.03 28.1926 10.0991C28.265 10.1683 28.3508 10.223 28.4451 10.2601C28.5394 10.2972 28.6404 10.3161 28.7423 10.3156Z" fill="white"/>
<path d="M48.7 32.552L40.9389 28.6165C40.7573 28.529 40.5474 28.5136 40.3542 28.5737C40.161 28.6337 39.9999 28.7645 39.9055 28.9378C39.811 29.1112 39.7908 29.3134 39.8491 29.501C39.9074 29.6885 40.0396 29.8466 40.2173 29.9413L47.9764 33.8787C48.1576 33.9607 48.3645 33.9722 48.5542 33.9107C48.7439 33.8493 48.9018 33.7197 48.995 33.5488C49.0882 33.378 49.1095 33.179 49.0546 32.9934C48.9997 32.8077 48.8727 32.6497 48.7 32.552Z" fill="white"/>
<path d="M50.5185 18.3409L41.8113 19.3228C41.6069 19.3456 41.4203 19.4458 41.2924 19.6013C41.1646 19.7568 41.1061 19.9549 41.1298 20.152C41.1534 20.3491 41.2573 20.5291 41.4186 20.6523C41.5799 20.7756 41.7853 20.832 41.9897 20.8092L50.6969 19.8292C50.8019 19.8224 50.9043 19.795 50.9981 19.7489C51.0918 19.7027 51.1748 19.6387 51.2422 19.5607C51.3095 19.4827 51.3597 19.3923 51.3897 19.2951C51.4197 19.1978 51.429 19.0957 51.4169 18.9949C51.4048 18.8941 51.3717 18.7967 51.3194 18.7086C51.2671 18.6205 51.1969 18.5436 51.1129 18.4824C51.0289 18.4213 50.9329 18.3772 50.8308 18.3529C50.7286 18.3286 50.6223 18.3245 50.5185 18.3409Z" fill="white"/>
<path d="M37.712 13.2115L43.1098 6.54536C43.1732 6.46833 43.2201 6.37996 43.2478 6.28534C43.2756 6.19072 43.2836 6.09174 43.2715 5.99411C43.2594 5.89648 43.2274 5.80212 43.1773 5.7165C43.1271 5.63088 43.06 5.55568 42.9796 5.49525C42.8995 5.43435 42.8076 5.38936 42.7094 5.3629C42.6112 5.33643 42.5086 5.329 42.4074 5.34105C42.3061 5.3531 42.2084 5.38438 42.1198 5.43309C42.0312 5.4818 41.9535 5.54696 41.8912 5.62482L36.4793 12.2949C36.3533 12.4513 36.2969 12.6496 36.3224 12.8462C36.348 13.0428 36.4534 13.2215 36.6156 13.343C36.7777 13.4646 36.9833 13.519 37.187 13.4944C37.3907 13.4697 37.576 13.368 37.702 13.2115H37.712Z" fill="white"/>
<path d="M39.459 22.3969C39.4587 19.8583 38.5147 17.4041 36.7984 15.48C35.0821 13.5559 32.7074 12.2895 30.1057 11.911C27.504 11.5326 24.8479 12.067 22.6198 13.4173C20.3918 14.7676 18.7397 16.8441 17.9636 19.2697C18.0358 19.2697 18.1059 19.2543 18.1781 19.2504H18.5429H18.601H18.4226C18.3505 19.2504 18.2803 19.2639 18.2081 19.2697C17.0541 19.3569 15.9389 19.7111 14.957 20.3024L6.70879 19.6507C6.50678 19.6415 6.30894 19.7083 6.15706 19.8372C6.00517 19.966 5.91112 20.1467 5.89474 20.3412C5.87835 20.5357 5.94092 20.7287 6.06924 20.8795C6.19757 21.0303 6.38161 21.1271 6.58251 21.1495L13.3194 21.6774C12.5127 22.587 11.9802 23.6928 11.78 24.8742C11.1982 24.6873 10.5891 24.592 9.976 24.5918C9.18958 24.5908 8.41065 24.7393 7.68372 25.0288C6.95678 25.3183 6.29607 25.7431 5.73934 26.279C5.18261 26.8149 4.74075 27.4513 4.43901 28.152C4.13727 28.8527 3.98157 29.6038 3.98078 30.3626C3.98078 30.4032 3.98078 30.4458 3.98078 30.4883C2.31511 30.9331 -0.00400365 31.8884 5.19023e-06 35.1471C5.19023e-06 37.7675 2.40531 39.8948 5.35982 39.8948H5.64245C7.44642 39.8058 14.961 39.8948 14.961 39.8948V39.771C14.9743 39.77 14.9877 39.77 15.0011 39.771V39.889V39.771C16.0414 39.9045 18.3845 39.9083 23.6862 39.92C23.6862 39.92 27.7291 39.9857 30.6656 39.9857C31.772 39.9857 32.7221 39.976 33.2473 39.9509C33.9206 39.9119 34.5791 39.7443 35.1847 39.4578C35.7903 39.1713 36.3309 38.7716 36.7751 38.2819C37.7825 37.222 38.3175 35.8223 38.2644 34.3851C38.2157 33.5874 37.9599 32.8142 37.5208 32.1367C37.0816 31.4592 36.4729 30.899 35.7508 30.5076C35.6987 30.4786 35.6446 30.4554 35.5925 30.4284C36.8001 29.4386 37.771 28.2082 38.4385 26.8217C39.106 25.4352 39.4542 23.9256 39.459 22.3969ZM36.6989 34.4663C36.7268 35.4964 36.3395 36.4968 35.6185 37.257C35.3138 37.5949 34.9428 37.8715 34.5269 38.0706C34.1111 38.2697 33.6584 38.3876 33.1952 38.4173C31.293 38.5101 23.7423 38.3844 23.7263 38.3844C20.3749 38.3844 15.2937 38.3651 15.0231 38.3574L15.0051 38.6977V38.3554C15.0051 38.3554 11.5214 38.3109 8.71321 38.3109C7.37025 38.3109 6.17963 38.3225 5.58632 38.3516H5.38588C3.3093 38.3516 1.61956 36.9089 1.61756 35.1374C1.61756 33.0101 2.77012 32.3507 5.04313 31.8072L5.6204 31.5848L5.66048 31.024L5.63442 30.7339C5.61327 30.6059 5.60056 30.4767 5.59635 30.3471C5.59794 29.2249 6.06072 28.149 6.88322 27.3554C7.70572 26.5619 8.82081 26.1153 9.984 26.1138C10.7319 26.1188 11.4658 26.31 12.1147 26.6688L13.3173 27.3225L13.2913 25.9862C13.2794 25.1678 13.4739 24.359 13.858 23.6293C14.2421 22.8996 14.8043 22.2709 15.4962 21.7973C15.6106 21.7827 15.7202 21.743 15.8164 21.6813C15.9126 21.6197 15.993 21.5376 16.0514 21.4415C16.6125 21.1427 17.2227 20.9392 17.8554 20.8401C18.0703 20.805 18.2871 20.7817 18.5048 20.7704H18.7934C19.0193 20.7718 19.2448 20.786 19.4689 20.813C22.0747 21.1127 24.1272 23.1182 24.2575 25.6303C24.2575 25.7232 24.2575 25.8237 24.2414 26.079L24.1713 28.0555L25.6064 26.6437C26.2167 26.0442 26.9981 25.6336 27.8512 25.4642C28.7042 25.2948 29.5902 25.3743 30.3962 25.6925C31.2022 26.0107 31.8918 26.5532 32.3771 27.251C32.8624 27.9487 33.1213 28.77 33.121 29.6103C33.1197 29.8875 33.0915 30.164 33.0368 30.4361C33.0368 30.4361 33.0368 30.4496 33.0368 30.4574L32.8785 31.2309L33.6803 31.3663C33.8885 31.4017 34.0936 31.4528 34.2936 31.5191C35.6506 31.9813 36.6227 33.1242 36.6909 34.4663H36.6989ZM34.6764 29.1849C34.602 28.2109 34.2722 27.2712 33.7179 26.454C33.1637 25.6368 32.4032 24.969 31.508 24.5132C30.6128 24.0575 29.6122 23.8288 28.6002 23.8486C27.5882 23.8685 26.598 24.1362 25.7227 24.6266C25.4328 23.2699 24.7158 22.0326 23.6696 21.0839C22.6235 20.1351 21.2993 19.5211 19.8778 19.3258C19.8017 19.3142 19.7195 19.3258 19.6413 19.3065C20.1271 18.0062 20.9148 16.8304 21.9442 15.8691C22.9735 14.9077 24.2172 14.1863 25.58 13.7602C26.9427 13.334 28.3885 13.2142 29.8066 13.4102C31.2248 13.6061 32.5776 14.1124 33.7617 14.8905C34.9457 15.6686 35.9296 16.6977 36.6379 17.8991C37.3463 19.1005 37.7604 20.4423 37.8485 21.8219C37.9366 23.2015 37.6963 24.5822 37.1462 25.8584C36.596 27.1346 35.7506 28.2725 34.6744 29.1849H34.6764Z" fill="white"/>
</svg>
